<svg width="24" height="24" viewBox="0 0 24 24" fill="none" xmlns="http://www.w3.org/2000/svg">
<path fill-rule="evenodd" clip-rule="evenodd" d="M3 5.75C2.86193 5.75 2.75 5.86193 2.75 6V18C2.75 18.1381 2.86193 18.25 3 18.25H21C21.1381 18.25 21.25 18.1381 21.25 18V6C21.25 5.86193 21.1381 5.75 21 5.75H3ZM1.75 6C1.75 5.30964 2.30964 4.75 3 4.75H21C21.6904 4.75 22.25 5.30964 22.25 6V18C22.25 18.6904 21.6904 19.25 21 19.25H3C2.30964 19.25 1.75 18.6904 1.75 18V6Z" fill="black"/>
<path fill-rule="evenodd" clip-rule="evenodd" d="M15.25 15.75C15.25 15.4739 15.4739 15.25 15.75 15.25H18.75C19.0261 15.25 19.25 15.4739 19.25 15.75C19.25 16.0261 19.0261 16.25 18.75 16.25H15.75C15.4739 16.25 15.25 16.0261 15.25 15.75Z" fill="black"/>
<path fill-rule="evenodd" clip-rule="evenodd" d="M10.75 15.75C10.75 15.4739 10.9739 15.25 11.25 15.25H12.75C13.0261 15.25 13.25 15.4739 13.25 15.75C13.25 16.0261 13.0261 16.25 12.75 16.25H11.25C10.9739 16.25 10.75 16.0261 10.75 15.75Z" fill="black"/>
<path fill-rule="evenodd" clip-rule="evenodd" d="M1.75 9.08008C1.75 8.80394 1.97386 8.58008 2.25 8.58008H21.75C22.0261 8.58008 22.25 8.80394 22.25 9.08008C22.25 9.35622 22.0261 9.58008 21.75 9.58008H2.25C1.97386 9.58008 1.75 9.35622 1.75 9.08008Z" fill="black"/>
</svg>
