<svg width="18" height="20" viewBox="0 0 18 20" fill="none" xmlns="http://www.w3.org/2000/svg">
<path d="M16.4995 1.99976H14.2495V1.24976C14.2495 1.05084 14.1704 0.860078 14.0298 0.719426C13.8891 0.578774 13.6984 0.499756 13.4995 0.499756C13.3005 0.499756 13.1098 0.578774 12.9691 0.719426C12.8285 0.860078 12.7495 1.05084 12.7495 1.24976V1.99976H5.24945V1.24976C5.24945 1.05084 5.17043 0.860078 5.02978 0.719426C4.88913 0.578774 4.69836 0.499756 4.49945 0.499756C4.30054 0.499756 4.10977 0.578774 3.96912 0.719426C3.82847 0.860078 3.74945 1.05084 3.74945 1.24976V1.99976H1.49945C1.10175 2.00015 0.720444 2.15831 0.439224 2.43953C0.158005 2.72075 -0.000156421 3.10205 -0.000549316 3.49976V18.4998C-0.000156668 18.8975 0.158005 19.2788 0.439224 19.56C0.720444 19.8412 1.10175 19.9994 1.49945 19.9998H16.4995C16.8972 19.9994 17.2785 19.8412 17.5597 19.56C17.8409 19.2788 17.9991 18.8975 17.9995 18.4998V3.49976C17.9991 3.10205 17.8409 2.72075 17.5597 2.43953C17.2785 2.15831 16.8972 2.00015 16.4995 1.99976ZM16.4995 6.49976H1.49945V3.49976H3.74945V4.24976C3.74945 4.44867 3.82847 4.63943 3.96912 4.78009C4.10977 4.92074 4.30054 4.99976 4.49945 4.99976C4.69836 4.99976 4.88913 4.92074 5.02978 4.78009C5.17043 4.63943 5.24945 4.44867 5.24945 4.24976V3.49976H12.7495V4.24976C12.7495 4.44867 12.8285 4.63943 12.9691 4.78009C13.1098 4.92074 13.3005 4.99976 13.4995 4.99976C13.6984 4.99976 13.8891 4.92074 14.0298 4.78009C14.1704 4.63943 14.2495 4.44867 14.2495 4.24976V3.49976H16.4995V6.49976Z" fill="black"/>
</svg>
