<svg width="24" height="24" viewBox="0 0 24 24" fill="none" xmlns="http://www.w3.org/2000/svg">
<path d="M7.5 21.375C8.12132 21.375 8.625 20.8713 8.625 20.25C8.625 19.6287 8.12132 19.125 7.5 19.125C6.87868 19.125 6.375 19.6287 6.375 20.25C6.375 20.8713 6.87868 21.375 7.5 21.375Z" fill="black"/>
<path d="M17.25 21.375C17.8713 21.375 18.375 20.8713 18.375 20.25C18.375 19.6287 17.8713 19.125 17.25 19.125C16.6287 19.125 16.125 19.6287 16.125 20.25C16.125 20.8713 16.6287 21.375 17.25 21.375Z" fill="black"/>
<path fill-rule="evenodd" clip-rule="evenodd" d="M0.25 3C0.25 2.72386 0.473858 2.5 0.75 2.5H2.32713C2.59877 2.5 2.86301 2.58849 3.07988 2.75206C3.29674 2.91564 3.45441 3.14541 3.52904 3.4066L4.34144 6.25H20.7857C20.9426 6.25 21.0904 6.32365 21.1849 6.4489C21.2794 6.57416 21.3096 6.7365 21.2665 6.88736L18.7916 15.5494C18.6722 15.9673 18.4199 16.335 18.0729 16.5967C17.726 16.8584 17.3032 17 16.8685 17H7.88145C7.44683 17 7.02404 16.8584 6.67706 16.5967C6.33008 16.335 6.0778 15.9673 5.9584 15.5494L3.48665 6.89832C3.48446 6.89124 3.48242 6.88409 3.48053 6.87688L2.56751 3.68132C2.55259 3.62908 2.52105 3.58313 2.47768 3.55041C2.43431 3.5177 2.38146 3.5 2.32713 3.5H0.75C0.473858 3.5 0.25 3.27614 0.25 3ZM4.62715 7.25L6.91993 15.2747C6.97963 15.4837 7.10577 15.6675 7.27926 15.7983C7.45275 15.9292 7.66414 16 7.88145 16H16.8685C17.0859 16 17.2973 15.9292 17.4707 15.7983C17.6442 15.6675 17.7704 15.4837 17.8301 15.2747L20.1229 7.25H4.62715Z" fill="black"/>
</svg>
