<svg width="18" height="19" viewBox="0 0 18 19" fill="none" xmlns="http://www.w3.org/2000/svg">
<path fill-rule="evenodd" clip-rule="evenodd" d="M8.99948 1.76294C8.93728 1.76294 8.87732 1.78613 8.8313 1.82797L8.49493 1.45803L8.8313 1.82797L1.33182 8.64685C1.30605 8.67029 1.28546 8.69884 1.27137 8.7307C1.25728 8.76255 1.25 8.797 1.25 8.83183V17.5C1.25 17.5328 1.25647 17.5653 1.26903 17.5957C1.2816 17.626 1.30002 17.6536 1.32323 17.6768C1.34645 17.7 1.37401 17.7184 1.40435 17.731C1.43469 17.7435 1.4672 17.75 1.50003 17.75L5.99948 17.7494C6.06578 17.7494 6.12936 17.723 6.17624 17.6762C6.22312 17.6293 6.24945 17.5657 6.24945 17.4994V12.9993C6.24945 12.6678 6.38115 12.3498 6.61557 12.1154C6.84999 11.881 7.16793 11.7493 7.49945 11.7493H10.4995C10.831 11.7493 11.1489 11.881 11.3833 12.1154C11.6178 12.3498 11.7495 12.6678 11.7495 12.9993V17.4994C11.7495 17.5657 11.7758 17.6293 11.8227 17.6762C11.8695 17.723 11.9331 17.7494 11.9994 17.7494L16.5 17.75C16.5328 17.75 16.5653 17.7435 16.5956 17.731C16.626 17.7184 16.6535 17.7 16.6768 17.6768C16.7 17.6536 16.7184 17.626 16.731 17.5957C16.7435 17.5653 16.75 17.5328 16.75 17.5V8.83186C16.75 8.79703 16.7427 8.76258 16.7286 8.73072C16.7145 8.69886 16.6939 8.6703 16.6682 8.64687L9.16766 1.82796C9.12164 1.78612 9.06167 1.76294 8.99948 1.76294ZM8.15856 1.08809C8.38865 0.878879 8.68846 0.76295 8.99944 0.762939C9.31042 0.762929 9.61024 0.878838 9.84034 1.08803L17.3409 7.90695C17.4697 8.02411 17.5727 8.1669 17.6431 8.32618C17.7136 8.48545 17.75 8.65769 17.75 8.83186V17.5C17.75 17.6642 17.7177 17.8267 17.6548 17.9784C17.592 18.1301 17.4999 18.2679 17.3838 18.3839C17.2677 18.5 17.1299 18.5921 16.9782 18.6549C16.8266 18.7177 16.664 18.75 16.4998 18.75L11.9993 18.7494C11.6678 18.7494 11.3499 18.6176 11.1155 18.3832C10.8811 18.1488 10.7494 17.8309 10.7495 17.4994V12.9993C10.7495 12.933 10.7231 12.8694 10.6762 12.8225C10.6293 12.7756 10.5658 12.7493 10.4995 12.7493H7.49945C7.43315 12.7493 7.36956 12.7756 7.32267 12.8225C7.27579 12.8694 7.24945 12.933 7.24945 12.9993V17.4994C7.24945 17.8309 7.11778 18.1488 6.88339 18.3832C6.649 18.6176 6.3311 18.7494 5.99961 18.7494L1.50016 18.75C1.33599 18.75 1.17343 18.7177 1.02175 18.6549C0.87008 18.5921 0.732262 18.5 0.616172 18.3839C0.500083 18.2679 0.407994 18.13 0.345165 17.9784C0.282337 17.8267 0.25 17.6642 0.25 17.5V8.83183C0.25 8.65768 0.286389 8.48545 0.356835 8.32618C0.427281 8.16692 0.530229 8.02413 0.65908 7.90697L8.15856 1.08809Z" fill="black"/>
</svg>
