<svg width="24" height="24" viewBox="0 0 24 24" fill="none" xmlns="http://www.w3.org/2000/svg">
<path fill-rule="evenodd" clip-rule="evenodd" d="M6 5.75C5.86193 5.75 5.75 5.86193 5.75 6V18C5.75 18.1381 5.86193 18.25 6 18.25H8.25C8.38807 18.25 8.5 18.1381 8.5 18V6C8.5 5.86193 8.38807 5.75 8.25 5.75H6ZM4.75 6C4.75 5.30964 5.30964 4.75 6 4.75H8.25C8.94036 4.75 9.5 5.30964 9.5 6V18C9.5 18.6904 8.94036 19.25 8.25 19.25H6C5.30964 19.25 4.75 18.6904 4.75 18V6Z" fill="black"/>
<path fill-rule="evenodd" clip-rule="evenodd" d="M15.75 5.75C15.6119 5.75 15.5 5.86193 15.5 6V18C15.5 18.1381 15.6119 18.25 15.75 18.25H18C18.1381 18.25 18.25 18.1381 18.25 18V6C18.25 5.86193 18.1381 5.75 18 5.75H15.75ZM14.5 6C14.5 5.30964 15.0596 4.75 15.75 4.75H18C18.6904 4.75 19.25 5.30964 19.25 6V18C19.25 18.6904 18.6904 19.25 18 19.25H15.75C15.0596 19.25 14.5 18.6904 14.5 18V6Z" fill="black"/>
<path fill-rule="evenodd" clip-rule="evenodd" d="M18.25 7.5C18.25 7.22386 18.4739 7 18.75 7H21C21.3315 7 21.6495 7.1317 21.8839 7.36612C22.1183 7.60054 22.25 7.91848 22.25 8.25V15.75C22.25 16.0815 22.1183 16.3995 21.8839 16.6339C21.6495 16.8683 21.3315 17 21 17H18.75C18.4739 17 18.25 16.7761 18.25 16.5C18.25 16.2239 18.4739 16 18.75 16H21C21.0663 16 21.1299 15.9737 21.1768 15.9268C21.2237 15.8799 21.25 15.8163 21.25 15.75V8.25C21.25 8.1837 21.2237 8.12011 21.1768 8.07322C21.1299 8.02634 21.0663 8 21 8H18.75C18.4739 8 18.25 7.77614 18.25 7.5Z" fill="black"/>
<path fill-rule="evenodd" clip-rule="evenodd" d="M3 8C2.9337 8 2.87011 8.02634 2.82322 8.07322C2.77634 8.12011 2.75 8.1837 2.75 8.25V15.75C2.75 15.8163 2.77634 15.8799 2.82322 15.9268C2.87011 15.9737 2.93369 16 3 16H5.25C5.52614 16 5.75 16.2239 5.75 16.5C5.75 16.7761 5.52614 17 5.25 17H3C2.66848 17 2.35054 16.8683 2.11612 16.6339C1.8817 16.3995 1.75 16.0815 1.75 15.75V8.25C1.75 7.91848 1.8817 7.60054 2.11612 7.36612C2.35054 7.1317 2.66848 7 3 7H5.25C5.52614 7 5.75 7.22386 5.75 7.5C5.75 7.77614 5.52614 8 5.25 8H3Z" fill="black"/>
<path fill-rule="evenodd" clip-rule="evenodd" d="M8.5 12C8.5 11.7239 8.72386 11.5 9 11.5H15C15.2761 11.5 15.5 11.7239 15.5 12C15.5 12.2761 15.2761 12.5 15 12.5H9C8.72386 12.5 8.5 12.2761 8.5 12Z" fill="black"/>
<path fill-rule="evenodd" clip-rule="evenodd" d="M21.25 12C21.25 11.7239 21.4739 11.5 21.75 11.5H23.25C23.5261 11.5 23.75 11.7239 23.75 12C23.75 12.2761 23.5261 12.5 23.25 12.5H21.75C21.4739 12.5 21.25 12.2761 21.25 12Z" fill="black"/>
<path fill-rule="evenodd" clip-rule="evenodd" d="M0.25 12C0.25 11.7239 0.473858 11.5 0.75 11.5H2.25C2.52614 11.5 2.75 11.7239 2.75 12C2.75 12.2761 2.52614 12.5 2.25 12.5H0.75C0.473858 12.5 0.25 12.2761 0.25 12Z" fill="black"/>
</svg>
