<svg width="18" height="20" viewBox="0 0 18 20" fill="none" xmlns="http://www.w3.org/2000/svg">
<path fill-rule="evenodd" clip-rule="evenodd" d="M14 1.25C14 0.973858 13.7761 0.75 13.5 0.75C13.2239 0.75 13 0.973858 13 1.25V2.25H5V1.25C5 0.973858 4.77614 0.75 4.5 0.75C4.22386 0.75 4 0.973858 4 1.25V2.25H1.5C0.809644 2.25 0.25 2.80964 0.25 3.5V7.25V18.5C0.25 19.1904 0.809644 19.75 1.5 19.75H16.5C17.1904 19.75 17.75 19.1904 17.75 18.5V7.25V3.5C17.75 2.80964 17.1904 2.25 16.5 2.25H14V1.25ZM16.75 6.75V3.5C16.75 3.36193 16.6381 3.25 16.5 3.25H14V4.25C14 4.52614 13.7761 4.75 13.5 4.75C13.2239 4.75 13 4.52614 13 4.25V3.25H5V4.25C5 4.52614 4.77614 4.75 4.5 4.75C4.22386 4.75 4 4.52614 4 4.25V3.25H1.5C1.36193 3.25 1.25 3.36193 1.25 3.5V6.75H16.75ZM1.25 7.75H16.75V18.5C16.75 18.6381 16.6381 18.75 16.5 18.75H1.5C1.36193 18.75 1.25 18.6381 1.25 18.5V7.75Z" fill="black"/>
</svg>
