<svg width="24" height="24" viewBox="0 0 24 24" fill="none" xmlns="http://www.w3.org/2000/svg">
<path fill-rule="evenodd" clip-rule="evenodd" d="M12 5.5C12.2761 5.5 12.5 5.72386 12.5 6V18C12.5 18.2761 12.2761 18.5 12 18.5C11.7239 18.5 11.5 18.2761 11.5 18V6C11.5 5.72386 11.7239 5.5 12 5.5Z" fill="#817FE2"/>
<path fill-rule="evenodd" clip-rule="evenodd" d="M9.39645 3.39645C9.59171 3.20118 9.90829 3.20118 10.1036 3.39645L12 5.29289L13.8964 3.39645C14.0917 3.20118 14.4083 3.20118 14.6036 3.39645C14.7988 3.59171 14.7988 3.90829 14.6036 4.10355L12.3536 6.35355C12.1583 6.54882 11.8417 6.54882 11.6464 6.35355L9.39645 4.10355C9.20118 3.90829 9.20118 3.59171 9.39645 3.39645Z" fill="#817FE2"/>
<path fill-rule="evenodd" clip-rule="evenodd" d="M11.6464 17.6464C11.8417 17.4512 12.1583 17.4512 12.3536 17.6464L14.6036 19.8964C14.7988 20.0917 14.7988 20.4083 14.6036 20.6036C14.4083 20.7988 14.0917 20.7988 13.8964 20.6036L12 18.7071L10.1036 20.6036C9.90829 20.7988 9.59171 20.7988 9.39645 20.6036C9.20118 20.4083 9.20118 20.0917 9.39645 19.8964L11.6464 17.6464Z" fill="#817FE2"/>
<path fill-rule="evenodd" clip-rule="evenodd" d="M6.37176 8.75008C6.50983 8.51094 6.81562 8.429 7.05477 8.56707L17.4471 14.5671C17.6862 14.7051 17.7682 15.0109 17.6301 15.2501C17.492 15.4892 17.1862 15.5712 16.9471 15.4331L6.55477 9.4331C6.31562 9.29502 6.23369 8.98923 6.37176 8.75008Z" fill="#817FE2"/>
<path fill-rule="evenodd" clip-rule="evenodd" d="M5.85119 5.44343C6.11793 5.37196 6.39209 5.53026 6.46356 5.79699L7.28706 8.87059C7.35852 9.13732 7.20023 9.41147 6.93351 9.48295L3.86001 10.3065C3.59328 10.378 3.31911 10.2197 3.24763 9.953C3.17616 9.68627 3.33444 9.4121 3.60118 9.34062L6.19173 8.64644L5.49763 6.05579C5.42616 5.78906 5.58446 5.51489 5.85119 5.44343Z" fill="#817FE2"/>
<path fill-rule="evenodd" clip-rule="evenodd" d="M20.7519 14.047C20.8234 14.3137 20.6651 14.5879 20.3984 14.6594L17.8078 15.3535L18.5019 17.9442C18.5734 18.2109 18.4151 18.4851 18.1483 18.5565C17.8816 18.628 17.6074 18.4697 17.536 18.203L16.7125 15.1294C16.641 14.8627 16.7993 14.5885 17.066 14.517L20.1395 13.6934C20.4063 13.622 20.6804 13.7802 20.7519 14.047Z" fill="#817FE2"/>
<path fill-rule="evenodd" clip-rule="evenodd" d="M17.6301 8.75008C17.7682 8.98923 17.6862 9.29502 17.4471 9.4331L7.05477 15.4331C6.81562 15.5712 6.50983 15.4892 6.37176 15.2501C6.23369 15.0109 6.31562 14.7051 6.55477 14.5671L16.9471 8.56707C17.1862 8.429 17.492 8.51094 17.6301 8.75008Z" fill="#817FE2"/>
<path fill-rule="evenodd" clip-rule="evenodd" d="M3.24763 14.047C3.31911 13.7802 3.59328 13.622 3.86001 13.6934L6.93351 14.517C7.20023 14.5885 7.35852 14.8627 7.28706 15.1294L6.46356 18.203C6.39209 18.4697 6.11793 18.628 5.85119 18.5565C5.58446 18.4851 5.42616 18.2109 5.49763 17.9442L6.19173 15.3535L3.60118 14.6594C3.33444 14.5879 3.17616 14.3137 3.24763 14.047Z" fill="#817FE2"/>
<path fill-rule="evenodd" clip-rule="evenodd" d="M18.1483 5.44343C18.4151 5.51489 18.5734 5.78906 18.5019 6.05579L17.8078 8.64644L20.3984 9.34062C20.6651 9.4121 20.8234 9.68627 20.7519 9.953C20.6804 10.2197 20.4063 10.378 20.1395 10.3065L17.066 9.48295C16.7993 9.41147 16.641 9.13732 16.7125 8.87059L17.536 5.79699C17.6074 5.53026 17.8816 5.37196 18.1483 5.44343Z" fill="#817FE2"/>
</svg>
