<svg width="184" height="168" viewBox="0 0 184 168" fill="none" xmlns="http://www.w3.org/2000/svg">
<g clip-path="url(#clip0)">
<path fill-rule="evenodd" clip-rule="evenodd" d="M91.9438 1.1499C107.615 1.1499 121.812 7.5069 132.084 17.7809C142.357 28.0539 148.715 42.2469 148.715 57.9209C148.715 73.5949 142.357 87.7879 132.084 98.0609C121.812 108.335 107.615 114.692 91.9438 114.692C76.2718 114.692 62.0769 108.335 51.8039 98.0609C41.5309 87.7879 35.1729 73.5949 35.1729 57.9209C35.1729 42.2469 41.5309 28.0539 51.8039 17.7809C62.0769 7.5069 76.2718 1.1499 91.9438 1.1499ZM128.798 21.0669C119.367 11.6339 106.334 5.7979 91.9438 5.7979C77.5538 5.7979 64.5209 11.6339 55.0899 21.0669C45.6579 30.4989 39.8199 43.5309 39.8199 57.9209C39.8199 72.3109 45.6579 85.3429 55.0899 94.7749C64.5209 104.208 77.5538 110.044 91.9438 110.044C106.334 110.044 119.367 104.208 128.798 94.7749C138.23 85.3429 144.068 72.3109 144.068 57.9209C144.068 43.5309 138.23 30.4989 128.798 21.0669Z" fill="black"/>
<path fill-rule="evenodd" clip-rule="evenodd" d="M91.9447 8.8208C105.501 8.8208 117.778 14.3188 126.661 23.2038C135.548 32.0898 141.046 44.3648 141.046 57.9218C141.046 71.4768 135.548 83.7538 126.661 92.6378C117.778 101.523 105.501 107.021 91.9447 107.021C78.3887 107.021 66.1127 101.523 57.2277 92.6378C48.3417 83.7538 42.8447 71.4768 42.8447 57.9218C42.8447 44.3648 48.3417 32.0898 57.2277 23.2038C66.1127 14.3188 78.3887 8.8208 91.9447 8.8208ZM125.018 24.8458C116.555 16.3828 104.86 11.1448 91.9447 11.1448C79.0307 11.1448 67.3357 16.3828 58.8707 24.8458C50.4057 33.3108 45.1687 45.0068 45.1687 57.9218C45.1687 70.8368 50.4057 82.5308 58.8707 90.9958C67.3357 99.4598 79.0307 104.697 91.9447 104.697C104.86 104.697 116.555 99.4598 125.018 90.9958C133.485 82.5308 138.723 70.8368 138.723 57.9218C138.723 45.0068 133.485 33.3108 125.018 24.8458Z" fill="black"/>
<path fill-rule="evenodd" clip-rule="evenodd" d="M82.1819 44.484L91.9449 14.436L101.709 44.484H133.301L107.741 63.054L117.504 93.101L91.9449 74.531L66.3859 93.101L76.1489 63.054L50.5879 44.484H82.1819Z" fill="black"/>
<path fill-rule="evenodd" clip-rule="evenodd" d="M0.62207 124.211H7.59707C10.6791 124.211 12.2191 125.845 12.2191 129.113V137.602C12.2191 140.843 10.6921 142.464 7.63607 142.464H4.44807V152.825H0.62207V124.211ZM4.44807 138.997H6.87907C7.88807 138.997 8.39307 138.439 8.39307 137.323V129.353C8.39307 128.236 7.82207 127.679 6.68007 127.679H4.44807V138.997ZM15.2481 152.825V124.211H24.7331V127.679H19.0731V136.366H24.0951V139.834H19.0731V149.358H24.7331V152.825H15.2481ZM27.4831 124.211H34.9751C37.8971 124.211 39.3581 125.845 39.3581 129.113V136.167C39.3581 138.665 38.6021 140.245 37.0881 140.91L39.7581 152.825H36.1311L33.6201 141.269H31.3091V152.825H27.4831V124.211ZM31.3091 138.001H33.8191C34.9621 138.001 35.5331 137.31 35.5331 135.928V129.751C35.5331 128.37 34.9621 127.679 33.8191 127.679H31.3091V138.001ZM49.8811 131.903V129.393C49.8811 128.25 49.3221 127.679 48.2071 127.679H47.6081C46.5181 127.679 45.9751 128.25 45.9751 129.393V134.135C45.9751 134.666 46.0741 135.031 46.2721 135.231C46.4731 135.431 46.8241 135.663 47.3291 135.928L50.9561 137.881C51.5141 138.279 51.9731 138.571 52.3321 138.758C52.6891 138.943 52.9681 139.143 53.1681 139.356C53.3671 139.568 53.5071 139.86 53.5871 140.232C53.6661 140.605 53.7061 141.162 53.7061 141.906V148.003C53.7061 151.218 52.1651 152.825 49.0831 152.825H46.7321C43.6761 152.825 42.1481 151.072 42.1481 147.565V146.131H45.9751V147.685C45.9751 148.801 46.5461 149.358 47.6881 149.358H48.3651C49.3751 149.358 49.8811 148.801 49.8811 147.685V142.822C49.8811 142.291 49.7731 141.926 49.5611 141.727C49.3501 141.527 49.0031 141.295 48.5251 141.029L44.8981 138.997C44.3141 138.678 43.8421 138.399 43.4841 138.16C43.1251 137.921 42.8471 137.662 42.6471 137.383C42.4471 137.104 42.3141 136.778 42.2481 136.406C42.1821 136.034 42.1481 135.556 42.1481 134.972V129.113C42.1481 125.845 43.6761 124.211 46.7321 124.211H49.1231C52.1791 124.211 53.7061 125.845 53.7061 129.113V131.903H49.8811ZM61.3181 152.825C58.2351 152.825 56.6951 151.205 56.6951 147.964V129.113C56.6951 125.845 58.2231 124.211 61.2781 124.211H64.9441C68.0001 124.211 69.5271 125.845 69.5271 129.113V147.964C69.5271 151.205 67.9871 152.825 64.9041 152.825H61.3181ZM64.1871 149.358C65.1971 149.358 65.7011 148.801 65.7011 147.685V129.353C65.7011 128.236 65.1311 127.679 63.9881 127.679H62.1941C61.0791 127.679 60.5201 128.236 60.5201 129.353V147.685C60.5201 148.801 61.0921 149.358 62.2331 149.358H64.1871ZM80.8461 138.041V124.211H84.6721V152.825H80.8461V147.127L76.7401 134.095V152.825H72.9151V124.211H76.7401L80.8461 138.041ZM91.8851 152.825H88.0601V129.113C88.0601 125.845 89.5871 124.211 92.6421 124.211H95.5121C98.5681 124.211 100.094 125.845 100.094 129.113V152.825H96.2691V142.345H91.8851V152.825ZM96.2691 138.877V129.353C96.2691 128.236 95.7111 127.679 94.5941 127.679H93.5591C92.4421 127.679 91.8851 128.236 91.8851 129.353V138.877H96.2691ZM120.779 131.903V129.393C120.779 128.25 120.221 127.679 119.105 127.679H118.506C117.418 127.679 116.873 128.25 116.873 129.393V134.135C116.873 134.666 116.973 135.031 117.172 135.231C117.371 135.431 117.723 135.663 118.228 135.928L121.853 137.881C122.412 138.279 122.871 138.571 123.228 138.758C123.588 138.943 123.867 139.143 124.066 139.356C124.266 139.568 124.404 139.86 124.486 140.232C124.564 140.605 124.605 141.162 124.605 141.906V148.003C124.605 151.218 123.064 152.825 119.98 152.825H117.629C114.574 152.825 113.047 151.072 113.047 147.565V146.131H116.873V147.685C116.873 148.801 117.443 149.358 118.586 149.358H119.264C120.273 149.358 120.779 148.801 120.779 147.685V142.822C120.779 142.291 120.672 141.926 120.459 141.727C120.246 141.527 119.902 141.295 119.424 141.029L115.797 138.997C115.213 138.678 114.74 138.399 114.381 138.16C114.023 137.921 113.744 137.662 113.545 137.383C113.346 137.104 113.213 136.778 113.146 136.406C113.08 136.034 113.047 135.556 113.047 134.972V129.113C113.047 125.845 114.574 124.211 117.629 124.211H120.021C123.076 124.211 124.605 125.845 124.605 129.113V131.903H120.779ZM127.793 124.211H134.766C137.848 124.211 139.389 125.845 139.389 129.113V137.602C139.389 140.843 137.861 142.464 134.807 142.464H131.619V152.825H127.793V124.211ZM131.619 138.997H134.049C135.059 138.997 135.564 138.439 135.564 137.323V129.353C135.564 128.236 134.992 127.679 133.85 127.679H131.619V138.997ZM146.842 152.825C143.76 152.825 142.219 151.205 142.219 147.964V129.113C142.219 125.845 143.748 124.211 146.801 124.211H150.469C153.523 124.211 155.051 125.845 155.051 129.113V147.964C155.051 151.205 153.51 152.825 150.428 152.825H146.842ZM149.711 149.358C150.721 149.358 151.226 148.801 151.226 147.685V129.353C151.226 128.236 150.654 127.679 149.512 127.679H147.719C146.603 127.679 146.045 128.236 146.045 129.353V147.685C146.045 148.801 146.615 149.358 147.758 149.358H149.711ZM158.439 124.211H165.932C168.853 124.211 170.314 125.845 170.314 129.113V136.167C170.314 138.665 169.559 140.245 168.045 140.91L170.715 152.825H167.088L164.576 141.269H162.266V152.825H158.439V124.211ZM162.266 138.001H164.775C165.918 138.001 166.488 137.31 166.488 135.928V129.751C166.488 128.37 165.918 127.679 164.775 127.679H162.266V138.001ZM179.601 127.679V152.825H175.775V127.679H172.109V124.211H183.268V127.679H179.601Z" fill="black"/>
<path fill-rule="evenodd" clip-rule="evenodd" d="M3.56507 161.654V162.807H1.89407V167.131H0.62207V157.609H3.77707V158.762H1.89407V161.654H3.56507Z" fill="black"/>
<path fill-rule="evenodd" clip-rule="evenodd" d="M13.0137 167.13H14.2857V157.609H13.0137V167.13Z" fill="black"/>
<path fill-rule="evenodd" clip-rule="evenodd" d="M25.8816 158.762V167.13H24.6096V158.762H23.3896V157.609H27.1026V158.762H25.8816Z" fill="black"/>
<path fill-rule="evenodd" clip-rule="evenodd" d="M38.8451 162.21V157.608H40.1161V167.13H38.8451V165.233L37.4781 160.897V167.13H36.2051V157.608H37.4781L38.8451 162.21Z" fill="black"/>
<path fill-rule="evenodd" clip-rule="evenodd" d="M49.6836 167.13V157.609H52.8396V158.762H50.9556V161.653H52.6276V162.807H50.9556V165.977H52.8396V167.13H49.6836Z" fill="black"/>
<path fill-rule="evenodd" clip-rule="evenodd" d="M64.5681 160.168V159.332C64.5681 158.952 64.3811 158.762 64.0101 158.762H63.8121C63.4501 158.762 63.2681 158.952 63.2681 159.332V160.91C63.2681 161.087 63.3011 161.209 63.3681 161.275C63.4341 161.341 63.5511 161.418 63.7191 161.507L64.9251 162.156C65.1121 162.289 65.2641 162.387 65.3831 162.448C65.5041 162.51 65.5951 162.576 65.6621 162.647C65.7281 162.718 65.7751 162.814 65.8011 162.939C65.8281 163.063 65.8411 163.248 65.8411 163.496V165.525C65.8411 166.595 65.3281 167.13 64.3021 167.13H63.5201C62.5041 167.13 61.9961 166.546 61.9961 165.379V164.902H63.2681V165.419C63.2681 165.79 63.4591 165.977 63.8391 165.977H64.0641C64.3991 165.977 64.5681 165.79 64.5681 165.419V163.801C64.5681 163.625 64.5321 163.503 64.4621 163.437C64.3911 163.371 64.2761 163.292 64.1171 163.204L62.9101 162.528C62.7161 162.422 62.5591 162.329 62.4401 162.25C62.3201 162.17 62.2271 162.084 62.1621 161.991C62.0941 161.898 62.0501 161.79 62.0281 161.666C62.0061 161.543 61.9961 161.383 61.9961 161.189V159.239C61.9961 158.151 62.5041 157.608 63.5201 157.608H64.3161C65.3341 157.608 65.8411 158.151 65.8411 159.239V160.168H64.5681Z" fill="black"/>
<path fill-rule="evenodd" clip-rule="evenodd" d="M77.7156 160.168V159.332C77.7156 158.952 77.5296 158.762 77.1576 158.762H76.9596C76.5976 158.762 76.4156 158.952 76.4156 159.332V160.91C76.4156 161.087 76.4486 161.209 76.5156 161.275C76.5816 161.341 76.6986 161.418 76.8666 161.507L78.0726 162.156C78.2596 162.289 78.4116 162.387 78.5306 162.448C78.6516 162.51 78.7426 162.576 78.8096 162.647C78.8756 162.718 78.9226 162.814 78.9486 162.939C78.9756 163.063 78.9876 163.248 78.9876 163.496V165.525C78.9876 166.595 78.4756 167.13 77.4486 167.13H76.6676C75.6516 167.13 75.1436 166.546 75.1436 165.379V164.902H76.4156V165.419C76.4156 165.79 76.6066 165.977 76.9866 165.977H77.2116C77.5476 165.977 77.7156 165.79 77.7156 165.419V163.801C77.7156 163.625 77.6806 163.503 77.6096 163.437C77.5386 163.371 77.4236 163.292 77.2656 163.204L76.0586 162.528C75.8636 162.422 75.7066 162.329 75.5876 162.25C75.4676 162.17 75.3746 162.084 75.3096 161.991C75.2416 161.898 75.1976 161.79 75.1756 161.666C75.1526 161.543 75.1436 161.383 75.1436 161.189V159.239C75.1436 158.151 75.6516 157.608 76.6676 157.608H77.4636C78.4806 157.608 78.9876 158.151 78.9876 159.239V160.168H77.7156Z" fill="black"/>
<path fill-rule="evenodd" clip-rule="evenodd" d="M101.207 167.13V162.807H99.6431V167.13H98.3691V157.609H99.6431V161.653H101.207V157.609H102.48V167.13H101.207Z" fill="black"/>
<path fill-rule="evenodd" clip-rule="evenodd" d="M113.519 167.13C112.494 167.13 111.98 166.59 111.98 165.512V159.239C111.98 158.151 112.488 157.609 113.505 157.609H114.726C115.742 157.609 116.249 158.151 116.249 159.239V165.512C116.249 166.59 115.738 167.13 114.712 167.13H113.519ZM114.474 165.977C114.81 165.977 114.978 165.79 114.978 165.419V159.319C114.978 158.947 114.787 158.762 114.408 158.762H113.81C113.439 158.762 113.253 158.947 113.253 159.319V165.419C113.253 165.79 113.443 165.977 113.824 165.977H114.474Z" fill="black"/>
<path fill-rule="evenodd" clip-rule="evenodd" d="M128.775 167.13H125.752V157.609H127.023V165.977H128.775V167.13Z" fill="black"/>
<path fill-rule="evenodd" clip-rule="evenodd" d="M137.877 167.13V157.609H140.092C141.285 157.609 141.883 158.218 141.883 159.439V165.751C141.883 166.67 141.375 167.13 140.357 167.13H137.877ZM139.15 165.977H140.106C140.441 165.977 140.609 165.834 140.609 165.552V159.451C140.609 158.991 140.42 158.762 140.039 158.762H139.15V165.977Z" fill="black"/>
<path fill-rule="evenodd" clip-rule="evenodd" d="M151.385 167.13H152.656V157.609H151.385V167.13Z" fill="black"/>
<path fill-rule="evenodd" clip-rule="evenodd" d="M164.864 162.21V157.608H166.135V167.13H164.864V165.233L163.497 160.897V167.13H162.223V157.608H163.497L164.864 162.21Z" fill="black"/>
<path fill-rule="evenodd" clip-rule="evenodd" d="M177.666 163.642V162.489H179.602V167.13H177.109C176.127 167.13 175.637 166.595 175.637 165.526V159.24C175.637 158.152 176.127 157.609 177.109 157.609H177.984C179.062 157.609 179.602 158.162 179.602 159.267V160.3H178.328V159.452C178.328 158.992 178.146 158.762 177.783 158.762H177.467C177.094 158.762 176.908 158.992 176.908 159.452V165.287C176.908 165.746 177.094 165.977 177.467 165.977H178.328V163.642H177.666Z" fill="black"/>
</g>
<defs>
<clipPath id="clip0">
<rect width="184" height="167" fill="white" transform="translate(0 0.5)"/>
</clipPath>
</defs>
</svg>
