<svg width="20" height="19" viewBox="0 0 20 19" fill="none" xmlns="http://www.w3.org/2000/svg">
<path fill-rule="evenodd" clip-rule="evenodd" d="M9.99916 1.5C6.9616 1.5 4.49916 3.96243 4.49916 7C4.49916 10.0376 6.9616 12.5 9.99916 12.5C13.0367 12.5 15.4992 10.0376 15.4992 7C15.4992 3.96243 13.0367 1.5 9.99916 1.5ZM12.8065 12.8642C14.9909 11.8166 16.4992 9.58442 16.4992 7C16.4992 3.41015 13.589 0.5 9.99916 0.5C6.40931 0.5 3.49916 3.41015 3.49916 7C3.49916 9.5844 5.00744 11.8165 7.19178 12.8641C6.25295 13.1119 5.34703 13.4838 4.49884 13.9734C2.8264 14.9386 1.43742 16.327 0.47144 17.999C0.333299 18.2381 0.415149 18.5439 0.654255 18.6821C0.893362 18.8202 1.19918 18.7384 1.33732 18.4992C2.21551 16.9792 3.47826 15.717 4.99871 14.8395C6.51916 13.9619 8.24365 13.5 9.99916 13.5C11.7547 13.5 13.4794 13.962 14.9998 14.8396C16.5202 15.7171 17.7829 16.9793 18.6611 18.4994C18.7992 18.7385 19.1051 18.8204 19.3442 18.6823C19.5833 18.5441 19.6651 18.2383 19.527 17.9992C18.561 16.3272 17.1721 14.9388 15.4997 13.9735C14.6515 13.4839 13.7454 13.1119 12.8065 12.8642Z" fill="black"/>
</svg>
