<svg width="15" height="15" viewBox="0 0 15 15" fill="none" xmlns="http://www.w3.org/2000/svg">
<path d="M13.9999 6.92882L7.47161 0.400559C7.35533 0.283953 7.21198 0.19795 7.05437 0.150226C6.89676 0.102503 6.72978 0.0945438 6.56835 0.127059L1.52739 1.13524C1.43061 1.15462 1.34173 1.2022 1.27194 1.27199C1.20214 1.34179 1.15456 1.43067 1.13518 1.52745L0.127003 6.56841C0.0945463 6.72984 0.102534 6.8968 0.150254 7.0544C0.197974 7.212 0.283945 7.35535 0.400503 7.47166L6.9287 13.9999C7.02156 14.0927 7.1318 14.1664 7.25313 14.2167C7.37446 14.2669 7.50451 14.2928 7.63584 14.2928C7.76717 14.2928 7.89722 14.267 8.01856 14.2167C8.13989 14.1665 8.25014 14.0928 8.34301 13.9999L13.9998 8.34313C14.0927 8.25027 14.1664 8.14003 14.2166 8.01869C14.2669 7.89736 14.2928 7.76732 14.2928 7.63598C14.2928 7.50465 14.2669 7.3746 14.2167 7.25327C14.1664 7.13193 14.0927 7.02168 13.9999 6.92882ZM4.2495 4.99992C4.10117 4.99992 3.95616 4.95594 3.83282 4.87353C3.70949 4.79112 3.61336 4.67398 3.55659 4.53694C3.49983 4.39989 3.48497 4.24909 3.51391 4.10361C3.54285 3.95812 3.61428 3.82448 3.71917 3.71959C3.82406 3.6147 3.9577 3.54327 4.10318 3.51434C4.24867 3.4854 4.39947 3.50025 4.53651 3.55701C4.67356 3.61378 4.79069 3.70991 4.8731 3.83325C4.95551 3.95658 4.9995 4.10159 4.9995 4.24992C4.9995 4.44884 4.92048 4.6396 4.77983 4.78025C4.63918 4.92091 4.44841 4.99992 4.2495 4.99992Z" fill="#ED967A"/>
</svg>
