<svg width="22" height="18" viewBox="0 0 22 18" fill="none" xmlns="http://www.w3.org/2000/svg">
<path d="M15.5 8.2786e-06C14.6269 -0.00149138 13.7655 0.200775 12.9843 0.590718C12.203 0.980661 11.5236 1.54752 11 2.24621C10.2908 1.30266 9.30292 0.606001 8.17603 0.254824C7.04915 -0.0963541 5.84036 -0.0842713 4.72072 0.289363C3.60107 0.662997 2.62728 1.37926 1.93712 2.3368C1.24697 3.29434 0.875399 4.44467 0.875 5.62501C0.880972 6.51971 1.0372 7.40706 1.33716 8.25001H5.34863L6.62598 6.33399C6.69446 6.23126 6.78725 6.14702 6.89611 6.08876C7.00497 6.03049 7.12653 6.00001 7.25 6.00001C7.37347 6.00001 7.49503 6.03049 7.60389 6.08876C7.71275 6.14702 7.80554 6.23126 7.87402 6.33399L10.25 9.89791L11.126 8.58399C11.1945 8.48126 11.2873 8.39702 11.3961 8.33875C11.505 8.28049 11.6265 8.25001 11.75 8.25001H14C14.1989 8.25001 14.3897 8.32903 14.5303 8.46968C14.671 8.61033 14.75 8.8011 14.75 9.00001C14.75 9.19892 14.671 9.38969 14.5303 9.53034C14.3897 9.67099 14.1989 9.75001 14 9.75001H12.1514L10.874 11.666C10.8055 11.7688 10.7127 11.853 10.6039 11.9113C10.495 11.9695 10.3735 12 10.25 12C10.1265 12 10.005 11.9695 9.89611 11.9113C9.78725 11.853 9.69446 11.7688 9.62598 11.666L7.25 8.10211L6.37402 9.41602C6.30554 9.51876 6.21275 9.603 6.10389 9.66126C5.99503 9.71953 5.87347 9.75001 5.75 9.75001H1.99849C4.49701 14.4197 10.321 17.7294 10.6335 17.9044C10.7455 17.9671 10.8717 18 11 18C11.1283 18 11.2545 17.9671 11.3665 17.9044C13.088 16.8961 14.7037 15.7173 16.1892 14.3856C19.4643 11.438 21.125 8.49047 21.125 5.62501C21.1233 4.13368 20.5301 2.70393 19.4756 1.6494C18.4211 0.594873 16.9913 0.00169855 15.5 8.2786e-06Z" fill="black"/>
</svg>
