<svg width="18" height="22" viewBox="0 0 18 22" fill="none" xmlns="http://www.w3.org/2000/svg">
<path d="M9 0.499512C6.81276 0.502107 4.71585 1.37213 3.16924 2.91875C1.62262 4.46536 0.752595 6.56227 0.75 8.74951C0.75 15.8086 8.25 21.1406 8.56934 21.364C8.69563 21.4522 8.84596 21.4995 9 21.4995C9.15404 21.4995 9.30437 21.4522 9.43066 21.364C9.75 21.1406 17.25 15.8086 17.25 8.74951C17.2474 6.56227 16.3774 4.46536 14.8308 2.91875C13.2842 1.37213 11.1872 0.502107 9 0.499512ZM9.00055 5.74978C9.59389 5.74978 10.1739 5.92573 10.6673 6.25537C11.1606 6.58502 11.5451 7.05355 11.7722 7.60173C11.9993 8.14991 12.0587 8.75311 11.9429 9.33505C11.8271 9.917 11.5414 10.4515 11.1219 10.8711C10.7023 11.2907 10.1678 11.5764 9.58582 11.6921C9.00388 11.8079 8.40068 11.7485 7.8525 11.5214C7.30432 11.2944 6.83578 10.9098 6.50614 10.4165C6.1765 9.92315 6.00055 9.34313 6.00055 8.74978C6.00054 8.35581 6.07813 7.9657 6.22889 7.60172C6.37965 7.23774 6.60063 6.90702 6.8792 6.62844C7.15778 6.34986 7.4885 6.12888 7.85249 5.97812C8.21647 5.82736 8.60658 5.74977 9.00055 5.74978Z" fill="#817FE2"/>
</svg>
