<svg width="14" height="14" viewBox="0 0 14 14" fill="none" xmlns="http://www.w3.org/2000/svg">
<path fill-rule="evenodd" clip-rule="evenodd" d="M7.49207 0.203838L12.7421 3.17121C12.8961 3.25849 13.0243 3.38504 13.1135 3.53797C13.2027 3.69091 13.2498 3.86476 13.25 4.04182V9.95832C13.2498 10.1354 13.2027 10.3092 13.1135 10.4622C13.0243 10.6151 12.8961 10.7416 12.7421 10.8289L7.49207 13.7963C7.34178 13.8806 7.17234 13.9249 7 13.9249C6.82767 13.9249 6.65823 13.8806 6.50794 13.7963L6.22222 13.6348V11.0718H8.12698C9.71429 11.0718 10.6667 10.341 10.6667 8.87947V5.22563C10.6667 3.76409 10.0317 3.03332 8.12698 3.03332H4V12.3788L1.25794 10.8289C1.10388 10.7417 0.975712 10.6151 0.886486 10.4622C0.79726 10.3092 0.750165 10.1354 0.75 9.95832V4.04182C0.750161 3.86476 0.797254 3.69092 0.886481 3.53799C0.975707 3.38506 1.10388 3.25851 1.25793 3.17125L6.50793 0.203838C6.65822 0.119494 6.82766 0.0751953 7 0.0751953C7.17234 0.0751953 7.34178 0.119494 7.49207 0.203838ZM7.49206 9.61024H6.22222V4.73845H7.49206C8.12698 4.73845 8.44444 4.98204 8.44444 5.46921V8.87947C8.44444 9.36665 8.12698 9.61024 7.49206 9.61024Z" fill="black"/>
</svg>
