<svg width="24" height="24" viewBox="0 0 24 24" fill="none" xmlns="http://www.w3.org/2000/svg">
<path fill-rule="evenodd" clip-rule="evenodd" d="M5.25 5C4.98478 5 4.73043 5.10536 4.54289 5.29289C4.35536 5.48043 4.25 5.73478 4.25 6C4.25 6.26522 4.35536 6.51957 4.54289 6.70711C4.73043 6.89464 4.98478 7 5.25 7H20.25C20.5815 7 20.8995 7.1317 21.1339 7.36612C21.3683 7.60054 21.5 7.91848 21.5 8.25V18.75C21.5 19.0815 21.3683 19.3995 21.1339 19.6339C20.8995 19.8683 20.5815 20 20.25 20H5.25C4.71957 20 4.21086 19.7893 3.83579 19.4142C3.46071 19.0391 3.25 18.5304 3.25 18V6C3.25 5.46957 3.46071 4.96086 3.83579 4.58579C4.21086 4.21071 4.71957 4 5.25 4H18C18.2761 4 18.5 4.22386 18.5 4.5C18.5 4.77614 18.2761 5 18 5H5.25ZM4.25 7.73206V18C4.25 18.2652 4.35536 18.5196 4.54289 18.7071C4.73043 18.8946 4.98478 19 5.25 19H20.25C20.3163 19 20.3799 18.9737 20.4268 18.9268C20.4737 18.8799 20.5 18.8163 20.5 18.75V8.25C20.5 8.18369 20.4737 8.12011 20.4268 8.07322C20.3799 8.02634 20.3163 8 20.25 8H5.25C4.89588 8 4.55145 7.90609 4.25 7.73206Z" fill="#817FE2"/>
<path d="M16.875 14.25C17.2892 14.25 17.625 13.9142 17.625 13.5C17.625 13.0858 17.2892 12.75 16.875 12.75C16.4608 12.75 16.125 13.0858 16.125 13.5C16.125 13.9142 16.4608 14.25 16.875 14.25Z" fill="#817FE2"/>
</svg>
