<svg width="16" height="16" viewBox="0 0 16 16" fill="none" xmlns="http://www.w3.org/2000/svg">
<path fill-rule="evenodd" clip-rule="evenodd" d="M1.25 1C1.11193 1 1 1.11193 1 1.25V5.75C1 5.88807 1.11193 6 1.25 6H5.75C5.88807 6 6 5.88807 6 5.75V1.25C6 1.11193 5.88807 1 5.75 1H1.25ZM0 1.25C0 0.559644 0.559644 0 1.25 0H5.75C6.44036 0 7 0.559644 7 1.25V5.75C7 6.44036 6.44036 7 5.75 7H1.25C0.559644 7 0 6.44036 0 5.75V1.25ZM1.25 10C1.11193 10 1 10.1119 1 10.25V14.75C1 14.8881 1.11193 15 1.25 15H5.75C5.88807 15 6 14.8881 6 14.75V10.25C6 10.1119 5.88807 10 5.75 10H1.25ZM0 10.25C0 9.55964 0.559644 9 1.25 9H5.75C6.44036 9 7 9.55964 7 10.25V14.75C7 15.4404 6.44036 16 5.75 16H1.25C0.559644 16 0 15.4404 0 14.75V10.25ZM10 1.25C10 1.11193 10.1119 1 10.25 1H14.75C14.8881 1 15 1.11193 15 1.25V5.75C15 5.88807 14.8881 6 14.75 6H10.25C10.1119 6 10 5.88807 10 5.75V1.25ZM10.25 0C9.55964 0 9 0.559644 9 1.25V5.75C9 6.44036 9.55964 7 10.25 7H14.75C15.4404 7 16 6.44036 16 5.75V1.25C16 0.559644 15.4404 0 14.75 0H10.25ZM9.5 9C9.77614 9 10 9.22386 10 9.5V12.5C10 12.7761 9.77614 13 9.5 13C9.22386 13 9 12.7761 9 12.5V9.5C9 9.22386 9.22386 9 9.5 9ZM13 9.5C13 9.22386 12.7761 9 12.5 9C12.2238 9 12 9.22386 12 9.5V15H9.49996C9.22382 15 8.99996 15.2239 8.99996 15.5C8.99996 15.7761 9.22382 16 9.49996 16H12.5C12.7761 16 13 15.7761 13 15.5V11.5H15.5C15.7761 11.5 16 11.2761 16 11C16 10.7239 15.7761 10.5 15.5 10.5H13V9.5ZM16 14C16 13.7239 15.7761 13.5 15.5 13.5C15.2239 13.5 15 13.7239 15 14V15.5C15 15.7761 15.2239 16 15.5 16C15.7761 16 16 15.7761 16 15.5V14Z" fill="black"/>
</svg>
