<svg width="80" height="32" viewBox="0 0 80 32" fill="none" xmlns="http://www.w3.org/2000/svg">
<g clip-path="url(#clip0)">
<path d="M76.6541 11.2457V0H79.8141V23.3143H76.6541V18.6514L73.3082 8.04571V23.3143H70.1482V0H73.3082L76.6541 11.2457ZM63.9212 0H67.0812V23.3143H63.9212V0ZM62.1553 23.3143H58.9953L54.9988 11.8857V11.7029L58.2518 0H61.1329L57.7871 11.6114L62.1553 23.3143ZM54.8129 23.3143H51.6529V0H54.8129V23.3143ZM45.5188 23.3143V12.7086H41.6153V23.3143H38.4553V0H41.6153V9.96571H45.5188V0H48.6788V23.3143H45.5188ZM32.6 6.30857V4.20571C32.6 3.29143 32.1353 2.83429 31.2059 2.83429H30.7412C29.8118 2.83429 29.3471 3.29143 29.3471 4.20571V8.04571C29.3471 8.50286 29.44 8.77714 29.6259 8.96C29.8118 9.14286 30.0906 9.32571 30.4624 9.50857L33.4365 11.1543C33.9012 11.52 34.2729 11.7029 34.5518 11.8857C34.8306 12.0686 35.1094 12.16 35.2024 12.3429C35.2953 12.5257 35.4812 12.7086 35.5741 13.0743C35.6671 13.3486 35.6671 13.8057 35.6671 14.4457V19.4743C35.6671 22.1257 34.3659 23.4057 31.8565 23.4057H29.9047C27.3953 23.4057 26.0941 21.9429 26.0941 19.1086V17.92H29.2541V19.2C29.2541 20.1143 29.7188 20.5714 30.6482 20.5714H31.2059C32.0424 20.5714 32.4141 20.1143 32.4141 19.2V15.2686C32.4141 14.8114 32.3212 14.5371 32.1353 14.3543C31.9494 14.1714 31.6706 13.9886 31.2988 13.8057L28.3247 12.16C27.86 11.8857 27.4882 11.7029 27.1165 11.52C26.8376 11.3371 26.5588 11.1543 26.4659 10.88C26.28 10.6971 26.1871 10.4229 26.0941 10.0571C26.0012 9.69143 26.0941 9.32572 26.0941 8.77714V4.02286C26.0941 1.37143 27.3953 0 29.9047 0H31.8565C34.4588 0 35.6671 1.37143 35.6671 4.02286V6.30857H32.6ZM23.4918 0V18.9257C23.4918 21.8514 22.1906 23.3143 19.6812 23.3143H16.9859C14.4765 23.3143 13.1753 21.8514 13.1753 18.8343V0H16.3353V19.0171C16.3353 20.0229 16.8 20.5714 17.7294 20.5714H19.0306C19.8671 20.5714 20.3318 20.0229 20.3318 19.0171V0H23.4918ZM4.16 12.0686H6.20471C7.04118 12.0686 7.41294 11.6114 7.41294 10.6971V4.20571C7.41294 3.29143 6.94824 2.83429 6.01882 2.83429H4.16V12.0686ZM1 0H6.76235C9.36471 0 10.5729 1.37143 10.5729 4.02286V10.9714C10.5729 13.6229 9.27176 14.9029 6.76235 14.9029H4.16V23.3143H1V0Z" fill="white"/>
<path d="M1 27.2456H2.20824C2.76588 27.2456 2.95176 27.5199 2.95176 28.0685V29.4399C2.95176 29.9885 2.67294 30.2627 2.20824 30.2627H1.65059V31.9999H1V27.2456ZM1.65059 29.7142H2.02235C2.20824 29.7142 2.30118 29.6227 2.30118 29.4399V28.1599C2.30118 27.977 2.20824 27.8856 2.02235 27.8856H1.65059V29.7142Z" fill="white"/>
<path d="M3.97461 31.9999V27.2456H5.55461V27.7942H4.6252V29.257H5.46167V29.8056H4.6252V31.3599H5.55461V31.9999H3.97461Z" fill="white"/>
<path d="M6.48438 27.2456H7.69261C8.15732 27.2456 8.43614 27.5199 8.43614 28.0685V29.257C8.43614 29.6227 8.3432 29.897 8.06437 30.0799L8.62202 31.9999H7.97143L7.59967 30.0799H7.13496V31.9999H6.48438V27.2456ZM7.13496 29.5313H7.50673C7.69261 29.5313 7.78555 29.4399 7.78555 29.1656V28.1599C7.78555 27.977 7.69261 27.7942 7.50673 27.7942H7.13496V29.5313Z" fill="white"/>
<path d="M10.7594 28.5258V28.1601C10.7594 27.9773 10.6664 27.8858 10.4805 27.8858H10.3876C10.2017 27.8858 10.1088 27.9773 10.1088 28.1601V28.983C10.1088 29.0744 10.1088 29.1658 10.1088 29.1658C10.1088 29.1658 10.2017 29.2573 10.2946 29.2573L10.9452 29.623C11.0382 29.7144 11.1311 29.7144 11.1311 29.8058C11.2241 29.8058 11.2241 29.8973 11.317 29.8973C11.317 29.8973 11.4099 29.9887 11.4099 30.0801C11.4099 30.1716 11.4099 30.263 11.4099 30.3544V31.3601C11.4099 31.9087 11.1311 32.183 10.6664 32.183H10.2017C9.64406 32.183 9.45818 31.9087 9.45818 31.3601V31.0858H10.1088C10.1088 31.2687 10.2017 31.3601 10.3876 31.3601H10.4805C10.6664 31.3601 10.7594 31.2687 10.7594 31.0858V30.263C10.7594 30.1716 10.7594 30.0801 10.6664 30.0801C10.6664 30.0801 10.5735 29.9887 10.4805 29.9887L9.82994 29.623C9.737 29.5316 9.64406 29.5316 9.64406 29.4401C9.55112 29.4401 9.55112 29.3487 9.45818 29.3487C9.45818 29.3487 9.36523 29.2573 9.36523 29.1658C9.36523 29.0744 9.36523 28.983 9.36523 28.8916V27.8858C9.36523 27.3373 9.64406 27.063 10.1088 27.063H10.4805C11.0382 27.063 11.2241 27.3373 11.2241 27.8858V28.343H10.7594V28.5258Z" fill="white"/>
<path d="M13.1752 31.9999C12.6175 31.9999 12.4316 31.7256 12.4316 31.177V28.0685C12.4316 27.5199 12.7105 27.2456 13.1752 27.2456H13.8258C14.3834 27.2456 14.5693 27.5199 14.5693 28.0685V31.177C14.5693 31.7256 14.2905 31.9999 13.8258 31.9999H13.1752ZM13.7328 31.3599C13.9187 31.3599 14.0116 31.2685 14.0116 31.0856V28.0685C14.0116 27.8856 13.9187 27.7942 13.7328 27.7942H13.454C13.2681 27.7942 13.1752 27.8856 13.1752 28.0685V31.0856C13.1752 31.2685 13.2681 31.3599 13.454 31.3599H13.7328Z" fill="white"/>
<path d="M16.9867 29.5313V27.2456H17.6373V31.9999H16.9867V30.9942L16.3361 28.8913V31.9999H15.6855V27.2456H16.3361L16.9867 29.5313Z" fill="white"/>
<path d="M19.3088 31.9999H18.6582V28.0685C18.6582 27.5199 18.937 27.2456 19.4017 27.2456H19.8664C20.4241 27.2456 20.61 27.5199 20.61 28.0685V31.9999H19.9594V30.2627H19.2159V31.9999H19.3088ZM20.0523 29.6228V28.0685C20.0523 27.8856 19.9594 27.7942 19.7735 27.7942H19.5876C19.4017 27.7942 19.3088 27.8856 19.3088 28.0685V29.6228H20.0523Z" fill="white"/>
<path d="M25.2582 28.5258V28.1601C25.2582 27.9773 25.1653 27.8858 24.9794 27.8858H24.8864C24.7006 27.8858 24.6076 27.9773 24.6076 28.1601V28.983C24.6076 29.0744 24.6076 29.1658 24.6076 29.1658C24.6076 29.1658 24.7006 29.2573 24.7935 29.2573L25.4441 29.623C25.537 29.7144 25.63 29.7144 25.63 29.8058C25.7229 29.8058 25.7229 29.8973 25.8159 29.8973C25.8159 29.8973 25.9088 29.9887 25.9088 30.0801C25.9088 30.1716 25.9088 30.263 25.9088 30.3544V31.3601C25.9088 31.9087 25.63 32.183 25.1653 32.183H24.7935C24.2359 32.183 24.05 31.9087 24.05 31.3601V31.0858H24.7006C24.7006 31.2687 24.7935 31.3601 24.9794 31.3601H25.0723C25.2582 31.3601 25.3511 31.2687 25.3511 31.0858V30.263C25.3511 30.1716 25.3511 30.0801 25.2582 30.0801C25.2582 30.0801 25.1653 29.9887 25.0723 29.9887L24.4217 29.623C24.3288 29.5316 24.2359 29.5316 24.2359 29.4401C24.2359 29.3487 24.1429 29.3487 24.05 29.3487C24.05 29.3487 23.957 29.2573 23.957 29.1658C23.957 29.0744 23.957 28.983 23.957 28.8916V27.8858C23.957 27.3373 24.2359 27.063 24.7006 27.063H25.0723C25.63 27.063 25.8159 27.3373 25.8159 27.8858V28.343H25.2582V28.5258Z" fill="white"/>
<path d="M26.9297 27.2456H28.1379C28.6956 27.2456 28.8815 27.5199 28.8815 28.0685V29.4399C28.8815 29.9885 28.6026 30.2627 28.1379 30.2627H27.5803V31.9999H26.9297V27.2456ZM27.5803 29.7142H27.952C28.1379 29.7142 28.2309 29.6227 28.2309 29.4399V28.1599C28.2309 27.977 28.1379 27.8856 27.952 27.8856H27.5803V29.7142Z" fill="white"/>
<path d="M30.556 31.9999C29.9984 31.9999 29.8125 31.7256 29.8125 31.177V28.0685C29.8125 27.5199 30.0913 27.2456 30.556 27.2456H31.2066C31.7643 27.2456 31.9501 27.5199 31.9501 28.0685V31.177C31.9501 31.7256 31.6713 31.9999 31.2066 31.9999H30.556ZM31.1137 31.3599C31.2996 31.3599 31.3925 31.2685 31.3925 31.0856V28.0685C31.3925 27.8856 31.2996 27.7942 31.1137 27.7942H30.7419C30.556 27.7942 30.4631 27.8856 30.4631 28.0685V31.0856C30.4631 31.2685 30.556 31.3599 30.7419 31.3599H31.1137Z" fill="white"/>
<path d="M33.0645 27.2456H34.2727C34.7374 27.2456 35.0162 27.5199 35.0162 28.0685V29.257C35.0162 29.6227 34.9233 29.897 34.6445 30.0799L35.1092 32.0913H34.4586L34.0868 30.1713H33.715V31.9999H33.0645V27.2456ZM33.715 29.5313H34.0868C34.2727 29.5313 34.3656 29.4399 34.3656 29.1656V28.1599C34.3656 27.977 34.2727 27.7942 34.0868 27.7942H33.715V29.5313Z" fill="white"/>
<path d="M37.1547 27.7942V31.9999H36.5041V27.7942H35.8535V27.2456H37.7123V27.7942H37.1547Z" fill="white"/>
<path d="M42.2664 29.257V29.8056H41.4299V31.9999H40.7793V27.2456H42.3593V27.7942H41.4299V29.257H42.2664Z" fill="white"/>
<path d="M44.2185 27.2456H43.2891V31.9999H44.2185V27.2456Z" fill="white"/>
<path d="M46.0774 27.7942V31.9999H45.4268V27.7942H44.8691V27.2456H46.728V27.7942H46.0774Z" fill="white"/>
<path d="M48.8656 29.5313V27.2456H49.5162V31.9999H48.8656V30.9942L48.215 28.8913V31.9999H47.5645V27.2456H48.215L48.8656 29.5313Z" fill="white"/>
<path d="M50.6309 31.9999V27.2456H52.2109V27.7942H51.2814V29.257H52.1179V29.8056H51.2814V31.3599H52.2109V31.9999H50.6309Z" fill="white"/>
<path d="M54.4418 28.5258V28.1601C54.4418 27.9773 54.3489 27.8858 54.163 27.8858H54.07C53.8842 27.8858 53.7912 27.9773 53.7912 28.1601V28.983C53.7912 29.0744 53.7912 29.1658 53.7912 29.1658C53.7912 29.1658 53.8842 29.2573 53.9771 29.2573L54.6277 29.623C54.7206 29.7144 54.8136 29.7144 54.8136 29.8058C54.9065 29.8058 54.9065 29.8973 54.9995 29.8973C54.9995 29.8973 55.0924 29.9887 55.0924 30.0801C55.0924 30.1716 55.0924 30.263 55.0924 30.3544V31.3601C55.0924 31.9087 54.8136 32.183 54.3489 32.183H53.9771C53.4195 32.183 53.2336 31.9087 53.2336 31.3601V31.0858H53.8842C53.8842 31.2687 53.9771 31.3601 54.163 31.3601H54.2559C54.4418 31.3601 54.5347 31.2687 54.5347 31.0858V30.263C54.5347 30.1716 54.5347 30.0801 54.4418 30.0801C54.4418 30.0801 54.3489 29.9887 54.2559 29.9887L53.6053 29.623C53.5124 29.5316 53.4195 29.5316 53.4195 29.4401C53.3265 29.4401 53.3265 29.3487 53.2336 29.3487C53.2336 29.3487 53.1406 29.2573 53.1406 29.1658C53.1406 29.0744 53.1406 28.983 53.1406 28.8916V27.8858C53.1406 27.3373 53.4195 27.063 53.8842 27.063H54.2559C54.8136 27.063 54.9995 27.3373 54.9995 27.8858V28.343H54.4418V28.5258Z" fill="white"/>
<path d="M57.3218 28.5258V28.1601C57.3218 27.9773 57.2289 27.8858 57.043 27.8858H56.9501C56.7642 27.8858 56.6713 27.9773 56.6713 28.1601V28.983C56.6713 29.0744 56.6713 29.1658 56.6713 29.1658C56.6713 29.1658 56.7642 29.2573 56.8571 29.2573L57.5077 29.623C57.6007 29.7144 57.6936 29.7144 57.6936 29.8058C57.7866 29.8058 57.7866 29.8973 57.8795 29.8973C57.8795 29.8973 57.9724 29.9887 57.9724 30.0801C57.9724 30.1716 57.9724 30.263 57.9724 30.3544V31.3601C57.9724 31.9087 57.6936 32.183 57.2289 32.183H56.7642C56.2066 32.183 56.0207 31.9087 56.0207 31.3601V31.0858H56.6713C56.6713 31.2687 56.7642 31.3601 56.9501 31.3601H57.043C57.2289 31.3601 57.3218 31.2687 57.3218 31.0858V30.263C57.3218 30.1716 57.3218 30.0801 57.2289 30.0801C57.2289 30.0801 57.136 29.9887 57.043 29.9887L56.3924 29.623C56.2995 29.5316 56.2066 29.5316 56.2066 29.4401C56.2066 29.3487 56.1136 29.3487 56.0207 29.3487C56.0207 29.3487 55.9277 29.2573 55.9277 29.1658C55.9277 29.0744 55.9277 28.983 55.9277 28.8916V27.8858C55.9277 27.3373 56.2066 27.063 56.6713 27.063H57.043C57.6007 27.063 57.7866 27.3373 57.7866 27.8858V28.343H57.3218V28.5258Z" fill="white"/>
<path d="M62.6207 31.9999V29.8056H61.8771V31.9999H61.2266V27.2456H61.8771V29.257H62.6207V27.2456H63.2713V31.9999H62.6207Z" fill="white"/>
<path d="M65.1303 31.9999C64.5726 31.9999 64.3867 31.7256 64.3867 31.177V28.0685C64.3867 27.5199 64.6655 27.2456 65.1303 27.2456H65.7808C66.3385 27.2456 66.5244 27.5199 66.5244 28.0685V31.177C66.5244 31.7256 66.2455 31.9999 65.7808 31.9999H65.1303ZM65.595 31.3599C65.7808 31.3599 65.8738 31.2685 65.8738 31.0856V28.0685C65.8738 27.8856 65.7808 27.7942 65.595 27.7942H65.3161C65.1303 27.7942 65.0373 27.8856 65.0373 28.0685V31.0856C65.0373 31.2685 65.1303 31.3599 65.3161 31.3599H65.595Z" fill="white"/>
<path d="M69.1249 31.9999H67.5449V27.2456H68.1955V31.3599H69.1249V31.9999Z" fill="white"/>
<path d="M69.9629 31.9999V27.2456H71.0782C71.7288 27.2456 72.0076 27.5199 72.0076 28.1599V31.2685C72.0076 31.7256 71.7288 31.9085 71.2641 31.9085H69.9629V31.9999ZM70.6135 31.3599H71.0782C71.2641 31.3599 71.357 31.2685 71.357 31.177V28.1599C71.357 27.977 71.2641 27.7942 71.0782 27.7942H70.6135V31.3599Z" fill="white"/>
<path d="M74.0525 27.2456H73.123V31.9999H74.0525V27.2456Z" fill="white"/>
<path d="M76.189 29.5313V27.2456H76.8396V31.9999H76.189V30.9942L75.4455 28.8913V31.9999H74.7949V27.2456H75.4455L76.189 29.5313Z" fill="white"/>
<path d="M78.8845 30.2627V29.7142H79.9068V31.9999H78.6986C78.2339 31.9999 77.9551 31.7256 77.9551 31.177V28.0685C77.9551 27.5199 78.2339 27.2456 78.6986 27.2456H79.0704C79.628 27.2456 79.9068 27.5199 79.9068 28.0685V28.617H79.2563V28.1599C79.2563 27.977 79.1633 27.7942 78.9774 27.7942H78.7915C78.6057 27.7942 78.5127 27.8856 78.5127 28.1599V31.0856C78.5127 31.2685 78.6057 31.4513 78.7915 31.4513H79.2563V30.2627H78.8845Z" fill="white"/>
</g>
<defs>
<clipPath id="clip0">
<rect width="80" height="32" fill="white"/>
</clipPath>
</defs>
</svg>
