<svg width="24" height="24" viewBox="0 0 24 24" fill="none" xmlns="http://www.w3.org/2000/svg">
<path fill-rule="evenodd" clip-rule="evenodd" d="M11.9999 3.25C11.1801 3.25 10.3684 3.41176 9.61123 3.726C8.85407 4.04024 8.16636 4.5008 7.5875 5.08128C7.00864 5.66176 6.55001 6.35076 6.23788 7.10879C5.92575 7.86682 5.76626 8.67899 5.76855 9.49877C5.76855 9.50004 5.76855 9.50131 5.76855 9.50258C5.76821 12.9292 5.05033 14.9674 4.37895 16.1224L4.37805 16.1239C4.35583 16.1618 4.344 16.2049 4.34375 16.2489C4.34351 16.2928 4.35486 16.3361 4.37667 16.3742C4.39847 16.4124 4.42995 16.4441 4.46794 16.4662C4.50578 16.4883 4.54873 16.5 4.5925 16.5002H19.4065C19.4503 16.5 19.4933 16.4883 19.5311 16.4662C19.5691 16.4441 19.6005 16.4124 19.6223 16.3743C19.6442 16.3361 19.6555 16.2929 19.6553 16.2489C19.655 16.205 19.6432 16.1619 19.621 16.124L19.6201 16.1224C18.9489 14.9672 18.2312 12.9284 18.2312 9.50016H18.7311L18.2312 9.49877C18.2335 8.67899 18.074 7.86682 17.7619 7.10879C17.4498 6.35076 16.9911 5.66176 16.4123 5.08128C15.8334 4.5008 15.1457 4.04024 14.3885 3.726C13.6314 3.41176 12.8197 3.25 11.9999 3.25ZM19.2312 9.50086C19.2338 8.54977 19.0487 7.6075 18.6866 6.72804C18.3244 5.84836 17.7921 5.0488 17.1204 4.37516C16.4486 3.70153 15.6505 3.16706 14.7719 2.80239C13.8932 2.43771 12.9512 2.25 11.9999 2.25C11.0486 2.25 10.1066 2.43771 9.2279 2.80239C8.34924 3.16706 7.55116 3.70153 6.87941 4.37516C6.20765 5.0488 5.67542 5.84836 5.3132 6.72804C4.95116 7.60729 4.76608 8.5493 4.76855 9.50016C4.76855 12.7864 4.08127 14.6443 3.51477 15.6192C3.40396 15.8086 3.34498 16.0239 3.34377 16.2433C3.34255 16.4632 3.39933 16.6794 3.50838 16.8703C3.61743 17.0612 3.77488 17.2199 3.96486 17.3305C4.15484 17.4411 4.37062 17.4996 4.59045 17.5002L4.59173 17.5002H19.4073L19.4086 17.5002C19.6284 17.4996 19.8441 17.4411 20.0341 17.3305C20.2241 17.22 20.3815 17.0613 20.4906 16.8704C20.5996 16.6796 20.6564 16.4634 20.6553 16.2436C20.6541 16.0238 20.595 15.8082 20.4839 15.6185L20.0524 15.8712L20.4848 15.6201C19.9185 14.6455 19.2313 12.7876 19.2312 9.50086Z" fill="black"/>
<path fill-rule="evenodd" clip-rule="evenodd" d="M9 16.5C9.27614 16.5 9.5 16.7239 9.5 17V17.75C9.5 18.413 9.76339 19.0489 10.2322 19.5178C10.7011 19.9866 11.337 20.25 12 20.25C12.663 20.25 13.2989 19.9866 13.7678 19.5178C14.2366 19.0489 14.5 18.413 14.5 17.75V17C14.5 16.7239 14.7239 16.5 15 16.5C15.2761 16.5 15.5 16.7239 15.5 17V17.75C15.5 18.6783 15.1313 19.5685 14.4749 20.2249C13.8185 20.8813 12.9283 21.25 12 21.25C11.0717 21.25 10.1815 20.8813 9.52513 20.2249C8.86875 19.5685 8.5 18.6783 8.5 17.75V17C8.5 16.7239 8.72386 16.5 9 16.5Z" fill="black"/>
</svg>
