<svg width="18" height="19" viewBox="0 0 18 19" fill="none" xmlns="http://www.w3.org/2000/svg">
<path d="M17.5091 7.72189L10.0084 0.902903C9.73293 0.650631 9.37291 0.510717 8.99936 0.510742C8.6258 0.510768 8.26581 0.65073 7.99033 0.90304L0.490975 7.72184C0.33647 7.86254 0.213003 8.03392 0.128462 8.22502C0.04392 8.41613 0.000160871 8.62276 -2.14478e-05 8.83173V17.4657C-0.00432283 17.8426 0.129413 18.2081 0.375978 18.4933C0.516445 18.653 0.689417 18.7808 0.883302 18.8682C1.07719 18.9555 1.28751 19.0004 1.50017 18.9999H5.99668C6.19559 18.9999 6.38636 18.9209 6.52701 18.7802C6.66766 18.6396 6.74668 18.4488 6.74668 18.2499V13.7492C6.74668 13.5503 6.8257 13.3595 6.96635 13.2189C7.107 13.0782 7.29777 12.9992 7.49668 12.9992H10.4967C10.6956 12.9992 10.8864 13.0782 11.027 13.2189C11.1677 13.3595 11.2467 13.5503 11.2467 13.7492V18.2499C11.2467 18.4488 11.3257 18.6396 11.4664 18.7802C11.607 18.9209 11.7978 18.9999 11.9967 18.9999H16.5021C16.7485 19.0031 16.9916 18.9432 17.2084 18.8259C17.4476 18.6968 17.6475 18.5054 17.7868 18.2719C17.9262 18.0385 17.9998 17.7718 18 17.4999V8.83178C17.9998 8.62282 17.956 8.41619 17.8715 8.22509C17.787 8.03399 17.6635 7.86261 17.5091 7.72189Z" fill="black"/>
</svg>
