<svg width="72" height="46" viewBox="0 0 72 46" fill="none" xmlns="http://www.w3.org/2000/svg">
<path d="M69.75 20.75H67.5V11.75C67.4986 10.5569 67.0241 9.41315 66.1805 8.56953C65.3369 7.72591 64.1931 7.25136 63 7.25H58.5V5C58.4986 3.80694 58.0241 2.66314 57.1805 1.81953C56.3369 0.975909 55.1931 0.501364 54 0.5H47.25C46.0569 0.501364 44.9131 0.975909 44.0695 1.81953C43.2259 2.66314 42.7514 3.80694 42.75 5V20.75H29.25V5C29.2486 3.80694 28.7741 2.66314 27.9305 1.81953C27.0869 0.975909 25.9431 0.501364 24.75 0.5H18C16.8069 0.501364 15.6631 0.975909 14.8195 1.81953C13.9759 2.66314 13.5014 3.80694 13.5 5V7.25H9C7.80694 7.25136 6.66314 7.72591 5.81953 8.56953C4.97591 9.41315 4.50136 10.5569 4.5 11.75V20.75H2.25C1.65326 20.75 1.08097 20.9871 0.65901 21.409C0.237053 21.831 0 22.4033 0 23C0 23.5967 0.237053 24.169 0.65901 24.591C1.08097 25.0129 1.65326 25.25 2.25 25.25H4.5V34.25C4.50136 35.4431 4.97591 36.5869 5.81953 37.4305C6.66314 38.2741 7.80694 38.7486 9 38.75H13.5V41C13.5014 42.1931 13.9759 43.3369 14.8195 44.1805C15.6631 45.0241 16.8069 45.4986 18 45.5H24.75C25.9431 45.4986 27.0869 45.0241 27.9305 44.1805C28.7741 43.3369 29.2486 42.1931 29.25 41V25.25H42.75V41C42.7514 42.1931 43.2259 43.3369 44.0695 44.1805C44.9131 45.0241 46.0569 45.4986 47.25 45.5H54C55.1931 45.4986 56.3369 45.0241 57.1805 44.1805C58.0241 43.3369 58.4986 42.1931 58.5 41V38.75H63C64.1931 38.7486 65.3369 38.2741 66.1805 37.4305C67.0241 36.5869 67.4986 35.4431 67.5 34.25V25.25H69.75C70.3467 25.25 70.919 25.0129 71.341 24.591C71.7629 24.169 72 23.5967 72 23C72 22.4033 71.7629 21.831 71.341 21.409C70.919 20.9871 70.3467 20.75 69.75 20.75ZM9 34.25V11.75H13.5V34.25H9ZM63 34.25H58.5V11.75H63V34.25Z" fill="#CDCDCD"/>
</svg>
