<svg width="60" height="60" viewBox="0 0 60 60" fill="none" xmlns="http://www.w3.org/2000/svg">
<path d="M30 0.75C24.2149 0.75 18.5597 2.46548 13.7496 5.67951C8.93945 8.89355 5.1904 13.4618 2.97654 18.8065C0.762674 24.1512 0.183426 30.0324 1.31204 35.7064C2.44066 41.3803 5.22645 46.5922 9.31714 50.6829C13.4078 54.7736 18.6197 57.5593 24.2936 58.688C29.9676 59.8166 35.8488 59.2373 41.1935 57.0235C46.5382 54.8096 51.1065 51.0606 54.3205 46.2504C57.5345 41.4403 59.25 35.7851 59.25 30C59.2411 22.2452 56.1565 14.8105 50.673 9.32703C45.1895 3.84353 37.7548 0.758963 30 0.75ZM40.125 21C40.7925 21 41.445 21.1979 42.0001 21.5688C42.5551 21.9396 42.9877 22.4667 43.2431 23.0834C43.4986 23.7001 43.5654 24.3787 43.4352 25.0334C43.3049 25.6881 42.9835 26.2895 42.5115 26.7615C42.0395 27.2335 41.4381 27.5549 40.7834 27.6852C40.1288 27.8154 39.4502 27.7485 38.8335 27.4931C38.2168 27.2376 37.6897 26.8051 37.3188 26.25C36.948 25.695 36.75 25.0425 36.75 24.375C36.7501 23.4799 37.1057 22.6215 37.7386 21.9886C38.3715 21.3556 39.2299 21 40.125 21ZM19.875 21C20.5425 21 21.195 21.1979 21.7501 21.5688C22.3051 21.9396 22.7377 22.4667 22.9931 23.0834C23.2486 23.7001 23.3154 24.3787 23.1852 25.0334C23.0549 25.6881 22.7335 26.2895 22.2615 26.7615C21.7895 27.2335 21.1881 27.5549 20.5334 27.6852C19.8788 27.8154 19.2002 27.7485 18.5835 27.4931C17.9668 27.2376 17.4397 26.8051 17.0688 26.25C16.698 25.695 16.5 25.0425 16.5 24.375C16.5001 23.4799 16.8557 22.6215 17.4886 21.9886C18.1215 21.3556 18.9799 21 19.875 21ZM42.8211 45.4468C42.4796 45.646 42.0913 45.7506 41.6961 45.75C41.3012 45.7503 40.9133 45.6468 40.5712 45.4497C40.2291 45.2526 39.9448 44.9689 39.7471 44.6272C39.253 43.775 38.6503 42.9906 37.9541 42.2937C36.9297 41.2664 35.7156 40.4478 34.3792 39.8833C32.9923 39.3024 31.5036 39.0033 30 39.0033C28.4964 39.0033 27.0078 39.3024 25.6209 39.8833C23.3645 40.8398 21.481 42.5051 20.2551 44.6272C19.9562 45.1438 19.4643 45.5205 18.8876 45.6744C18.3109 45.8283 17.6967 45.7468 17.1801 45.4479C16.6635 45.1489 16.2868 44.657 16.1329 44.0803C15.979 43.5036 16.0604 42.8894 16.3594 42.3728C17.7429 39.9797 19.7316 37.9928 22.1259 36.6114C24.5202 35.23 27.2358 34.5028 30 34.5028C32.7642 34.5028 35.4798 35.23 37.8741 36.6114C40.2684 37.9928 42.2571 39.9797 43.6406 42.3728C43.789 42.6284 43.8855 42.9107 43.9246 43.2036C43.9637 43.4965 43.9447 43.7943 43.8685 44.0798C43.7924 44.3653 43.6607 44.6331 43.481 44.8676C43.3012 45.1022 43.077 45.299 42.8211 45.4468Z" fill="#CDCDCD"/>
</svg>
